# Blender 3.5.1
# www.blender.org
o Circle
v 0.000000 0.000000 0.000000 0.8941 1.0000 0.0000
v 0.000000 0.060000 0.000000 0.8941 1.0000 0.0000
v -0.011705 0.058847 0.000000 0.8941 1.0000 0.0000
v -0.022961 0.055433 0.000000 0.8941 1.0000 0.0000
v -0.033334 0.049888 0.000000 0.8941 1.0000 0.0000
v -0.042426 0.042426 0.000000 0.8941 1.0000 0.0000
v -0.049888 0.033334 0.000000 0.8941 1.0000 0.0000
v -0.055433 0.022961 0.000000 0.8941 1.0000 0.0000
v -0.058847 0.011705 0.000000 0.8941 1.0000 0.0000
v -0.060000 0.000000 0.000000 0.8941 1.0000 0.0000
v -0.058847 -0.011705 0.000000 0.8941 1.0000 0.0000
v -0.055433 -0.022961 0.000000 0.8941 1.0000 0.0000
v -0.049888 -0.033334 0.000000 0.8941 1.0000 0.0000
v -0.042426 -0.042426 0.000000 0.8941 1.0000 0.0000
v -0.033334 -0.049888 0.000000 0.8941 1.0000 0.0000
v -0.022961 -0.055433 0.000000 0.8941 1.0000 0.0000
v -0.011705 -0.058847 0.000000 0.8941 1.0000 0.0000
v 0.000000 -0.060000 0.000000 0.8941 1.0000 0.0000
v 0.011705 -0.058847 0.000000 0.8941 1.0000 0.0000
v 0.022961 -0.055433 0.000000 0.8941 1.0000 0.0000
v 0.033334 -0.049888 0.000000 0.8941 1.0000 0.0000
v 0.042426 -0.042426 0.000000 0.8941 1.0000 0.0000
v 0.049888 -0.033334 0.000000 0.8941 1.0000 0.0000
v 0.055433 -0.022961 0.000000 0.8941 1.0000 0.0000
v 0.058847 -0.011705 0.000000 0.8941 1.0000 0.0000
v 0.060000 0.000000 0.000000 0.8941 1.0000 0.0000
v 0.058847 0.011705 0.000000 0.8941 1.0000 0.0000
v 0.055433 0.022961 0.000000 0.8941 1.0000 0.0000
v 0.049888 0.033334 0.000000 0.8941 1.0000 0.0000
v 0.042426 0.042426 0.000000 0.8941 1.0000 0.0000
v 0.033334 0.049888 0.000000 0.8941 1.0000 0.0000
v 0.022961 0.055433 0.000000 0.8941 1.0000 0.0000
v 0.011705 0.058847 0.000000 0.8941 1.0000 0.0000
v 0.000000 0.000000 0.001000 0.8941 1.0000 0.0000
v 0.000000 0.060000 0.001000 0.8941 1.0000 0.0000
v -0.011705 0.058847 0.001000 0.8941 1.0000 0.0000
v -0.022961 0.055433 0.001000 0.8941 1.0000 0.0000
v -0.033334 0.049888 0.001000 0.8941 1.0000 0.0000
v -0.042426 0.042426 0.001000 0.8941 1.0000 0.0000
v -0.049888 0.033334 0.001000 0.8941 1.0000 0.0000
v -0.055433 0.022961 0.001000 0.8941 1.0000 0.0000
v -0.058847 0.011705 0.001000 0.8941 1.0000 0.0000
v -0.060000 0.000000 0.001000 0.8941 1.0000 0.0000
v -0.058847 -0.011705 0.001000 0.8941 1.0000 0.0000
v -0.055433 -0.022961 0.001000 0.8941 1.0000 0.0000
v -0.049888 -0.033334 0.001000 0.8941 1.0000 0.0000
v -0.042426 -0.042426 0.001000 0.8941 1.0000 0.0000
v -0.033334 -0.049888 0.001000 0.8941 1.0000 0.0000
v -0.022961 -0.055433 0.001000 0.8941 1.0000 0.0000
v -0.011705 -0.058847 0.001000 0.8941 1.0000 0.0000
v 0.000000 -0.060000 0.001000 0.8941 1.0000 0.0000
v 0.011705 -0.058847 0.001000 0.8941 1.0000 0.0000
v 0.022961 -0.055433 0.001000 0.8941 1.0000 0.0000
v 0.033334 -0.049888 0.001000 0.8941 1.0000 0.0000
v 0.042426 -0.042426 0.001000 0.8941 1.0000 0.0000
v 0.049888 -0.033334 0.001000 0.8941 1.0000 0.0000
v 0.055433 -0.022961 0.001000 0.8941 1.0000 0.0000
v 0.058847 -0.011705 0.001000 0.8941 1.0000 0.0000
v 0.060000 0.000000 0.001000 0.8941 1.0000 0.0000
v 0.058847 0.011705 0.001000 0.8941 1.0000 0.0000
v 0.055433 0.022961 0.001000 0.8941 1.0000 0.0000
v 0.049888 0.033334 0.001000 0.8941 1.0000 0.0000
v 0.042426 0.042426 0.001000 0.8941 1.0000 0.0000
v 0.033334 0.049888 0.001000 0.8941 1.0000 0.0000
v 0.022961 0.055433 0.001000 0.8941 1.0000 0.0000
v 0.011705 0.058847 0.001000 0.8941 1.0000 0.0000
v -0.052383 0.035001 0.000000 0.8941 1.0000 0.0000
v -0.044548 0.044548 0.000000 0.8941 1.0000 0.0000
v -0.058204 0.024109 0.000000 0.8941 1.0000 0.0000
v -0.061789 0.012291 0.000000 0.8941 1.0000 0.0000
v -0.063000 0.000000 0.000000 0.8941 1.0000 0.0000
v -0.061789 -0.012291 0.000000 0.8941 1.0000 0.0000
v -0.058204 -0.024109 0.000000 0.8941 1.0000 0.0000
v -0.052383 -0.035001 0.000000 0.8941 1.0000 0.0000
v -0.044548 -0.044548 0.000000 0.8941 1.0000 0.0000
v -0.052383 0.035001 0.001050 0.8941 1.0000 0.0000
v -0.044548 0.044548 0.001050 0.8941 1.0000 0.0000
v -0.058204 0.024109 0.001050 0.8941 1.0000 0.0000
v -0.061789 0.012291 0.001050 0.8941 1.0000 0.0000
v -0.063000 0.000000 0.001050 0.8941 1.0000 0.0000
v -0.061789 -0.012291 0.001050 0.8941 1.0000 0.0000
v -0.058204 -0.024109 0.001050 0.8941 1.0000 0.0000
v -0.052383 -0.035001 0.001050 0.8941 1.0000 0.0000
v -0.044548 -0.044548 0.001050 0.8941 1.0000 0.0000
v -0.048982 0.033334 0.060993 0.8941 1.0000 0.0000
v -0.041520 0.042426 0.060993 0.8941 1.0000 0.0000
v -0.054527 0.022961 0.060993 0.8941 1.0000 0.0000
v -0.057941 0.011705 0.060993 0.8941 1.0000 0.0000
v -0.059094 0.000000 0.060993 0.8941 1.0000 0.0000
v -0.057941 -0.011705 0.060993 0.8941 1.0000 0.0000
v -0.054527 -0.022961 0.060993 0.8941 1.0000 0.0000
v -0.048982 -0.033334 0.060993 0.8941 1.0000 0.0000
v -0.041520 -0.042426 0.060993 0.8941 1.0000 0.0000
v -0.051477 -0.035001 0.061043 0.8941 1.0000 0.0000
v -0.062094 0.000000 0.061043 0.8941 1.0000 0.0000
v -0.060883 0.012291 0.061043 0.8941 1.0000 0.0000
v -0.043642 0.044548 0.061043 0.8941 1.0000 0.0000
v -0.051477 0.035001 0.061043 0.8941 1.0000 0.0000
v -0.057298 0.024109 0.061043 0.8941 1.0000 0.0000
v -0.060883 -0.012291 0.061043 0.8941 1.0000 0.0000
v -0.057298 -0.024109 0.061043 0.8941 1.0000 0.0000
v -0.043642 -0.044548 0.061043 0.8941 1.0000 0.0000
vn -0.0000 -0.0000 -1.0000
vn -0.0000 -0.0000 1.0000
vn 0.6344 -0.7730 -0.0000
vn 0.8819 0.4714 -0.0000
vn -0.9568 -0.2903 0.0145
vn -0.0980 0.9952 -0.0000
vn -0.4714 -0.8819 -0.0000
vn 0.7730 -0.6344 -0.0000
vn 0.7730 0.6344 -0.0000
vn -0.9951 -0.0980 0.0150
vn -0.2903 -0.9569 -0.0000
vn 0.8819 -0.4714 -0.0000
vn -0.2903 0.9569 -0.0000
vn 0.6344 0.7730 -0.0000
vn -0.0980 -0.9952 -0.0000
vn 0.9569 -0.2903 -0.0000
vn -0.4714 0.8819 -0.0000
vn 0.4714 0.8819 -0.0000
vn 0.0980 -0.9952 -0.0000
vn 0.9952 -0.0980 -0.0000
vn -0.6344 0.7730 -0.0000
vn 0.2903 0.9569 -0.0000
vn 0.9568 0.2903 -0.0145
vn 0.2903 -0.9569 -0.0000
vn 0.9952 0.0980 -0.0000
vn 0.8818 -0.4714 -0.0133
vn 0.0980 0.9952 -0.0000
vn 0.7071 0.7071 -0.0000
vn 0.4714 -0.8819 -0.0000
vn 0.9569 0.2903 -0.0000
vn -0.6344 -0.7730 -0.0000
vn -0.9569 0.2903 -0.0000
vn -0.9952 0.0980 -0.0000
vn -0.9952 -0.0980 -0.0000
vn -0.9569 -0.2903 -0.0000
vn -0.8819 -0.4714 -0.0000
vn -0.7730 0.6344 -0.0000
vn -0.7730 -0.6344 -0.0000
vn -0.8819 0.4714 -0.0000
vn -0.9951 0.0980 0.0150
vn 0.7069 -0.7072 -0.0107
vn -0.9568 0.2903 0.0145
vn 0.7071 -0.7071 -0.0000
vn 0.9951 0.0980 -0.0150
vn 0.0167 0.0016 0.9999
vn 0.0129 -0.0106 0.9999
vn 0.0129 0.0106 0.9999
vn 0.0167 -0.0016 0.9999
vn 0.0148 -0.0079 0.9999
vn 0.0160 0.0049 0.9999
vn 0.0160 -0.0049 0.9999
vn 0.0148 0.0079 0.9999
vn 0.9568 -0.2903 -0.0145
vn 0.8818 0.4714 -0.0133
vn -0.8818 -0.4714 0.0133
vn 0.7069 0.7072 -0.0107
vn -0.7730 -0.6343 0.0117
vn 0.9951 -0.0980 -0.0150
vn -0.7730 0.6344 0.0117
vn 0.7730 0.6344 -0.0117
vn -0.8818 0.4714 0.0133
vn 0.7730 -0.6344 -0.0117
vn -0.7730 -0.6344 0.0117
vn -0.7730 0.6343 0.0117
vn 0.7730 0.6343 -0.0117
vt 0.500000 0.500000
vt 0.500000 1.000000
vt 0.402455 0.990393
vt 0.308658 0.961940
vt 0.222215 0.915735
vt 0.146447 0.853553
vt 0.084265 0.777785
vt 0.038060 0.691342
vt 0.009607 0.597545
vt 0.000000 0.500000
vt 0.009607 0.402455
vt 0.038060 0.308658
vt 0.084265 0.222215
vt 0.146447 0.146447
vt 0.222215 0.084265
vt 0.308658 0.038060
vt 0.402455 0.009607
vt 0.500000 0.000000
vt 0.597545 0.009607
vt 0.691342 0.038060
vt 0.777785 0.084265
vt 0.853553 0.146447
vt 0.915735 0.222215
vt 0.961940 0.308658
vt 0.990393 0.402455
vt 1.000000 0.500000
vt 0.990393 0.597545
vt 0.961940 0.691342
vt 0.915735 0.777785
vt 0.853553 0.853553
vt 0.777785 0.915735
vt 0.691342 0.961940
vt 0.597545 0.990393
vt 0.500000 0.500000
vt 0.500000 1.000000
vt 0.402455 0.990393
vt 0.308658 0.961940
vt 0.222215 0.915735
vt 0.146447 0.853553
vt 0.084265 0.777785
vt 0.038060 0.691342
vt 0.009607 0.597545
vt 0.000000 0.500000
vt 0.009607 0.402455
vt 0.038060 0.308658
vt 0.084265 0.222215
vt 0.146447 0.146447
vt 0.222215 0.084265
vt 0.308658 0.038060
vt 0.402455 0.009607
vt 0.500000 0.000000
vt 0.597545 0.009607
vt 0.691342 0.038060
vt 0.777785 0.084265
vt 0.853553 0.146447
vt 0.915735 0.222215
vt 0.961940 0.308658
vt 0.990393 0.402455
vt 1.000000 0.500000
vt 0.990393 0.597545
vt 0.961940 0.691342
vt 0.915735 0.777785
vt 0.853553 0.853553
vt 0.777785 0.915735
vt 0.691342 0.961940
vt 0.597545 0.990393
vt 0.084265 0.777785
vt 0.146447 0.853553
vt 0.038060 0.691342
vt 0.009607 0.597545
vt 0.000000 0.500000
vt 0.009607 0.402455
vt 0.038060 0.308658
vt 0.084265 0.222215
vt 0.146447 0.146447
vt 0.084265 0.777785
vt 0.146447 0.853553
vt 0.038060 0.691342
vt 0.009607 0.597545
vt 0.000000 0.500000
vt 0.009607 0.402455
vt 0.038060 0.308658
vt 0.084265 0.222215
vt 0.146447 0.146447
vt 0.084265 0.777785
vt 0.146447 0.853553
vt 0.038060 0.691342
vt 0.009607 0.597545
vt 0.000000 0.500000
vt 0.009607 0.402455
vt 0.038060 0.308658
vt 0.084265 0.222215
vt 0.146447 0.146447
vt 0.084265 0.222215
vt 0.000000 0.500000
vt 0.009607 0.597545
vt 0.146447 0.853553
vt 0.084265 0.777785
vt 0.038060 0.691342
vt 0.009607 0.402455
vt 0.038060 0.308658
vt 0.146447 0.146447
s 0
f 1/1/1 3/3/1 2/2/1
f 1/1/1 4/4/1 3/3/1
f 1/1/1 5/5/1 4/4/1
f 1/1/1 6/6/1 5/5/1
f 1/1/1 7/7/1 6/6/1
f 1/1/1 8/8/1 7/7/1
f 1/1/1 9/9/1 8/8/1
f 1/1/1 10/10/1 9/9/1
f 1/1/1 11/11/1 10/10/1
f 1/1/1 12/12/1 11/11/1
f 1/1/1 13/13/1 12/12/1
f 1/1/1 14/14/1 13/13/1
f 1/1/1 15/15/1 14/14/1
f 1/1/1 16/16/1 15/15/1
f 1/1/1 17/17/1 16/16/1
f 1/1/1 18/18/1 17/17/1
f 1/1/1 19/19/1 18/18/1
f 1/1/1 20/20/1 19/19/1
f 1/1/1 21/21/1 20/20/1
f 1/1/1 22/22/1 21/21/1
f 1/1/1 23/23/1 22/22/1
f 1/1/1 24/24/1 23/23/1
f 1/1/1 25/25/1 24/24/1
f 1/1/1 26/26/1 25/25/1
f 1/1/1 27/27/1 26/26/1
f 1/1/1 28/28/1 27/27/1
f 1/1/1 29/29/1 28/28/1
f 1/1/1 30/30/1 29/29/1
f 1/1/1 31/31/1 30/30/1
f 1/1/1 32/32/1 31/31/1
f 1/1/1 33/33/1 32/32/1
f 1/1/1 2/2/1 33/33/1
f 34/34/2 35/35/2 36/36/2
f 34/34/2 36/36/2 37/37/2
f 34/34/2 37/37/2 38/38/2
f 34/34/2 38/38/2 39/39/2
f 34/34/2 39/39/2 40/40/2
f 34/34/2 40/40/2 41/41/2
f 34/34/2 41/41/2 42/42/2
f 34/34/2 42/42/2 43/43/2
f 34/34/2 43/43/2 44/44/2
f 34/34/2 44/44/2 45/45/2
f 34/34/2 45/45/2 46/46/2
f 34/34/2 46/46/2 47/47/2
f 34/34/2 47/47/2 48/48/2
f 34/34/2 48/48/2 49/49/2
f 34/34/2 49/49/2 50/50/2
f 34/34/2 50/50/2 51/51/2
f 34/34/2 51/51/2 52/52/2
f 34/34/2 52/52/2 53/53/2
f 34/34/2 53/53/2 54/54/2
f 34/34/2 54/54/2 55/55/2
f 34/34/2 55/55/2 56/56/2
f 34/34/2 56/56/2 57/57/2
f 34/34/2 57/57/2 58/58/2
f 34/34/2 58/58/2 59/59/2
f 34/34/2 59/59/2 60/60/2
f 34/34/2 60/60/2 61/61/2
f 34/34/2 61/61/2 62/62/2
f 34/34/2 62/62/2 63/63/2
f 34/34/2 63/63/2 64/64/2
f 34/34/2 64/64/2 65/65/2
f 34/34/2 65/65/2 66/66/2
f 34/34/2 66/66/2 35/35/2
f 22/22/3 54/54/3 21/21/3
f 29/29/4 61/61/4 28/28/4
f 82/82/5 100/100/5 81/81/5
f 3/3/6 35/35/6 2/2/6
f 16/16/7 48/48/7 15/15/7
f 23/23/8 55/55/8 22/22/8
f 30/30/9 62/62/9 29/29/9
f 81/81/10 95/95/10 80/80/10
f 17/17/11 49/49/11 16/16/11
f 24/24/12 56/56/12 23/23/12
f 4/4/13 36/36/13 3/3/13
f 31/31/14 63/63/14 30/30/14
f 13/13/1 73/73/1 12/12/1
f 18/18/15 50/50/15 17/17/15
f 25/25/16 57/57/16 24/24/16
f 5/5/17 37/37/17 4/4/17
f 32/32/18 64/64/18 31/31/18
f 9/9/1 69/69/1 8/8/1
f 19/19/19 51/51/19 18/18/19
f 26/26/20 58/58/20 25/25/20
f 6/6/21 38/38/21 5/5/21
f 33/33/22 65/65/22 32/32/22
f 45/45/23 90/90/23 91/91/23
f 20/20/24 52/52/24 19/19/24
f 27/27/25 59/59/25 26/26/25
f 40/40/26 87/87/26 41/41/26
f 2/2/27 66/66/27 33/33/27
f 39/39/28 68/68/28 77/77/28
f 21/21/29 53/53/29 20/20/29
f 28/28/30 60/60/30 27/27/30
f 12/12/1 72/72/1 11/11/1
f 15/15/31 47/47/31 14/14/31
f 70/70/32 78/78/32 69/69/32
f 71/71/33 79/79/33 70/70/33
f 72/72/34 80/80/34 71/71/34
f 73/73/35 81/81/35 72/72/35
f 74/74/36 82/82/36 73/73/36
f 67/67/37 77/77/37 68/68/37
f 75/75/38 83/83/38 74/74/38
f 69/69/39 76/76/39 67/67/39
f 10/10/1 70/70/1 9/9/1
f 14/14/1 74/74/1 13/13/1
f 79/79/40 95/95/40 96/96/40
f 84/84/41 93/93/41 102/102/41
f 7/7/1 68/68/1 6/6/1
f 10/10/1 72/72/1 71/71/1
f 78/78/42 96/96/42 99/99/42
f 47/47/43 75/75/43 14/14/43
f 44/44/44 89/89/44 90/90/44
f 7/7/1 69/69/1 67/67/1
f 90/90/45 95/95/45 100/100/45
f 86/86/46 98/98/46 85/85/46
f 93/93/47 94/94/47 102/102/47
f 88/88/48 95/95/48 89/89/48
f 85/85/49 99/99/49 87/87/49
f 91/91/50 100/100/50 101/101/50
f 87/87/51 96/96/51 88/88/51
f 91/91/52 94/94/52 92/92/52
f 41/41/53 88/88/53 42/42/53
f 46/46/54 91/91/54 92/92/54
f 83/83/55 101/101/55 82/82/55
f 77/77/56 86/86/56 39/39/56
f 84/84/57 94/94/57 83/83/57
f 42/42/58 89/89/58 43/43/58
f 77/77/59 98/98/59 97/97/59
f 47/47/60 92/92/60 93/93/60
f 76/76/61 99/99/61 98/98/61
f 39/39/62 85/85/62 40/40/62
f 22/22/3 55/55/3 54/54/3
f 29/29/4 62/62/4 61/61/4
f 82/82/5 101/101/5 100/100/5
f 3/3/6 36/36/6 35/35/6
f 16/16/7 49/49/7 48/48/7
f 23/23/8 56/56/8 55/55/8
f 30/30/9 63/63/9 62/62/9
f 81/81/10 100/100/10 95/95/10
f 17/17/11 50/50/11 49/49/11
f 24/24/12 57/57/12 56/56/12
f 4/4/13 37/37/13 36/36/13
f 31/31/14 64/64/14 63/63/14
f 13/13/1 74/74/1 73/73/1
f 18/18/15 51/51/15 50/50/15
f 25/25/16 58/58/16 57/57/16
f 5/5/17 38/38/17 37/37/17
f 32/32/18 65/65/18 64/64/18
f 9/9/1 70/70/1 69/69/1
f 19/19/19 52/52/19 51/51/19
f 26/26/20 59/59/20 58/58/20
f 6/6/21 39/39/21 38/38/21
f 33/33/22 66/66/22 65/65/22
f 45/45/23 44/44/23 90/90/23
f 20/20/24 53/53/24 52/52/24
f 27/27/25 60/60/25 59/59/25
f 40/40/26 85/85/26 87/87/26
f 2/2/27 35/35/27 66/66/27
f 39/39/28 6/6/28 68/68/28
f 21/21/29 54/54/29 53/53/29
f 28/28/30 61/61/30 60/60/30
f 12/12/1 73/73/1 72/72/1
f 15/15/31 48/48/31 47/47/31
f 70/70/32 79/79/32 78/78/32
f 71/71/33 80/80/33 79/79/33
f 72/72/34 81/81/34 80/80/34
f 73/73/35 82/82/35 81/81/35
f 74/74/36 83/83/36 82/82/36
f 67/67/37 76/76/37 77/77/37
f 75/75/38 84/84/38 83/83/38
f 69/69/39 78/78/39 76/76/39
f 10/10/1 71/71/1 70/70/1
f 14/14/1 75/75/1 74/74/1
f 79/79/40 80/80/40 95/95/40
f 84/84/41 47/47/41 93/93/41
f 7/7/1 67/67/1 68/68/1
f 10/10/1 11/11/1 72/72/1
f 78/78/42 79/79/42 96/96/42
f 47/47/43 84/84/43 75/75/43
f 44/44/44 43/43/44 89/89/44
f 7/7/1 8/8/1 69/69/1
f 90/90/45 89/89/45 95/95/45
f 86/86/46 97/97/46 98/98/46
f 93/93/47 92/92/47 94/94/47
f 88/88/48 96/96/48 95/95/48
f 85/85/49 98/98/49 99/99/49
f 91/91/50 90/90/50 100/100/50
f 87/87/51 99/99/51 96/96/51
f 91/91/52 101/101/52 94/94/52
f 41/41/53 87/87/53 88/88/53
f 46/46/54 45/45/54 91/91/54
f 83/83/55 94/94/55 101/101/55
f 77/77/56 97/97/56 86/86/56
f 84/84/63 102/102/63 94/94/63
f 42/42/58 88/88/58 89/89/58
f 77/77/64 76/76/64 98/98/64
f 47/47/65 46/46/65 92/92/65
f 76/76/61 78/78/61 99/99/61
f 39/39/62 86/86/62 85/85/62
