# Blender 3.5.1
# www.blender.org
o Circle
v 0.000000 0.060000 0.000000
v -0.022961 0.055433 0.000000
v -0.042426 0.042426 0.000000
v -0.055433 0.022961 0.000000
v -0.060000 -0.000000 0.000000
v -0.055433 -0.022961 0.000000
v -0.042426 -0.042426 0.000000
v -0.022961 -0.055433 0.000000
v 0.000000 -0.060000 0.000000
v 0.022961 -0.055433 0.000000
v 0.042426 -0.042426 0.000000
v 0.055433 -0.022961 0.000000
v 0.060000 -0.000000 0.000000
v 0.055433 0.022961 0.000000
v 0.042426 0.042426 0.000000
v 0.022961 0.055433 0.000000
v 0.000000 0.060000 0.020000
v -0.022961 0.055433 0.020000
v -0.042426 0.042426 0.020000
v -0.055433 0.022961 0.020000
v -0.060000 -0.000000 0.020000
v -0.055433 -0.022961 0.020000
v -0.042426 -0.042426 0.020000
v -0.022961 -0.055433 0.020000
v 0.000000 -0.060000 0.020000
v 0.022961 -0.055433 0.020000
v 0.042426 -0.042426 0.020000
v 0.055433 -0.022961 0.020000
v 0.060000 -0.000000 0.020000
v 0.055433 0.022961 0.020000
v 0.042426 0.042426 0.020000
v 0.022961 0.055433 0.020000
v -0.003827 0.009239 0.000000
v -0.007071 0.007071 0.000000
v 0.003827 0.009239 0.000000
v 0.007071 -0.007071 0.000000
v 0.000000 0.010000 0.000000
v 0.010000 0.000000 0.000000
v 0.009239 -0.003827 0.000000
v 0.009239 0.003827 0.000000
v 0.007071 0.007071 0.000000
v -0.010000 0.000000 0.000000
v -0.007071 -0.007071 0.000000
v -0.009239 -0.003827 0.000000
v -0.009239 0.003827 0.000000
v -0.003827 -0.009239 0.000000
v 0.003827 -0.009239 0.000000
v 0.000000 -0.010000 0.000000
v -0.009239 -0.003827 0.020000
v -0.010000 0.000000 0.020000
v -0.007071 -0.007071 0.020000
v -0.009239 0.003827 0.020000
v -0.007071 0.007071 0.020000
v -0.003827 0.009239 0.020000
v 0.000000 -0.010000 0.020000
v 0.000000 0.010000 0.020000
v -0.003827 -0.009239 0.020000
v 0.003827 0.009239 0.020000
v 0.003827 -0.009239 0.020000
v 0.010000 0.000000 0.020000
v 0.009239 0.003827 0.020000
v 0.007071 -0.007071 0.020000
v 0.009239 -0.003827 0.020000
v 0.007071 0.007071 0.020000
v -0.003827 0.009239 0.000000
v -0.007071 0.007071 0.000000
v 0.003827 0.009239 0.000000
v 0.007071 -0.007071 0.000000
v 0.000000 0.010000 0.000000
v 0.010000 0.000000 0.000000
v 0.009239 -0.003827 0.000000
v 0.009239 0.003827 0.000000
v 0.007071 0.007071 0.000000
v -0.010000 0.000000 0.000000
v -0.007071 -0.007071 0.000000
v -0.009239 -0.003827 0.000000
v -0.009239 0.003827 0.000000
v -0.003827 -0.009239 0.000000
v 0.003827 -0.009239 0.000000
v 0.000000 -0.010000 0.000000
v -0.009239 -0.003827 0.020000
v -0.010000 0.000000 0.020000
v -0.007071 -0.007071 0.020000
v -0.009239 0.003827 0.020000
v -0.007071 0.007071 0.020000
v -0.003827 0.009239 0.020000
v 0.000000 -0.010000 0.020000
v 0.000000 0.010000 0.020000
v -0.003827 -0.009239 0.020000
v 0.003827 0.009239 0.020000
v 0.003827 -0.009239 0.020000
v 0.010000 0.000000 0.020000
v 0.009239 0.003827 0.020000
v 0.007071 -0.007071 0.020000
v 0.009239 -0.003827 0.020000
v 0.007071 0.007071 0.020000
vn -0.0000 -0.0000 1.0000
vn 0.6894 0.2856 -0.6657
vn 0.7462 -0.0000 0.6657
vn 0.7462 -0.0000 -0.6657
vn -0.5276 -0.5276 -0.6657
vn -0.6894 -0.2856 0.6657
vn -0.6894 -0.2856 -0.6657
vn 0.5276 0.5276 -0.6657
vn 0.6894 0.2856 0.6657
vn -0.2856 -0.6894 -0.6657
vn -0.5276 -0.5276 0.6657
vn 0.2856 0.6894 -0.6657
vn 0.5276 0.5276 0.6657
vn -0.0000 -0.7462 -0.6657
vn -0.2856 -0.6894 0.6657
vn -0.2856 0.6894 -0.6657
vn -0.0000 0.7462 0.6657
vn -0.0000 0.7462 -0.6657
vn 0.2856 0.6894 0.6657
vn 0.2856 -0.6894 -0.6657
vn -0.0000 -0.7462 0.6657
vn -0.5276 0.5276 -0.6657
vn -0.2856 0.6894 0.6657
vn 0.5276 -0.5276 -0.6657
vn 0.2856 -0.6894 0.6657
vn -0.6894 0.2856 -0.6657
vn -0.5276 0.5276 0.6657
vn 0.6894 -0.2856 -0.6657
vn 0.5276 -0.5276 0.6657
vn -0.7462 -0.0000 -0.6657
vn -0.6894 0.2856 0.6657
vn 0.6894 -0.2856 0.6657
vn -0.7462 -0.0000 0.6657
vn -0.0000 -1.0000 -0.0000
vn -0.3827 -0.9239 -0.0000
vn -0.7071 -0.7071 -0.0000
vn -0.9239 -0.3827 -0.0000
vn -1.0000 -0.0000 -0.0000
vn -0.9239 0.3827 -0.0000
vn -0.7071 0.7071 -0.0000
vn -0.3827 0.9239 -0.0000
vn -0.0000 1.0000 -0.0000
vn 0.3827 0.9239 -0.0000
vn 0.7071 0.7071 -0.0000
vn 0.9239 0.3827 -0.0000
vn 1.0000 -0.0000 -0.0000
vn 0.9239 -0.3827 -0.0000
vn 0.7071 -0.7071 -0.0000
vn 0.3827 -0.9239 -0.0000
vn -0.0000 -0.0000 -1.0000
vt 0.901225 0.500000
vt 0.872796 0.562500
vt 0.901225 0.415078
vt 0.839661 0.395920
vt 0.901225 0.330156
vt 0.745301 0.254700
vt 0.901225 0.245234
vt 0.604081 0.160339
vt 0.160312 0.010600
vt 0.901225 0.160312
vt 0.437500 0.127204
vt 0.245234 0.010600
vt 0.270919 0.160339
vt 0.330156 0.010600
vt 0.129700 0.254699
vt 0.415078 0.010600
vt 0.035339 0.395919
vt 0.002204 0.562500
vt 0.500000 0.010600
vt 0.584922 0.010600
vt 0.035339 0.729080
vt 0.669844 0.010600
vt 0.129699 0.870300
vt 0.754766 0.010600
vt 0.270919 0.964661
vt 0.901225 0.839688
vt 0.839688 0.010600
vt 0.437500 0.997796
vt 0.901225 0.754766
vt 0.604080 0.964661
vt 0.901225 0.669844
vt 0.745300 0.870300
vt 0.839661 0.729081
vt 0.901225 0.584922
vt 0.002204 0.562500
vt 0.973775 0.500000
vt 0.973775 0.415078
vt 0.035339 0.395920
vt 0.973775 0.330156
vt 0.129700 0.254700
vt 0.973775 0.245234
vt 0.270920 0.160339
vt 0.973775 0.160312
vt 0.160312 0.083150
vt 0.437500 0.127204
vt 0.245234 0.083150
vt 0.604081 0.160339
vt 0.330156 0.083150
vt 0.745301 0.254700
vt 0.415078 0.083150
vt 0.839661 0.395920
vt 0.500000 0.083150
vt 0.872796 0.562500
vt 0.584922 0.083150
vt 0.839661 0.729081
vt 0.669844 0.083150
vt 0.745301 0.870301
vt 0.754766 0.083150
vt 0.604081 0.964661
vt 0.973775 0.839688
vt 0.839688 0.083150
vt 0.437500 0.997796
vt 0.973775 0.754766
vt 0.270920 0.964661
vt 0.973775 0.669844
vt 0.129700 0.870300
vt 0.035339 0.729081
vt 0.973775 0.584922
vt 0.504527 0.534737
vt 0.488800 0.511200
vt 0.504527 0.590263
vt 0.386200 0.613800
vt 0.510049 0.562500
vt 0.437500 0.635049
vt 0.409737 0.629527
vt 0.465263 0.629527
vt 0.488800 0.613800
vt 0.437500 0.489951
vt 0.386200 0.511200
vt 0.409737 0.495473
vt 0.465263 0.495473
vt 0.370473 0.534736
vt 0.370473 0.590263
vt 0.364951 0.562500
vt 0.465264 0.495473
vt 0.437500 0.489951
vt 0.488800 0.511200
vt 0.409737 0.495473
vt 0.386200 0.511200
vt 0.370473 0.534737
vt 0.510049 0.562500
vt 0.364951 0.562500
vt 0.504527 0.534737
vt 0.370473 0.590263
vt 0.504527 0.590263
vt 0.437500 0.635049
vt 0.409737 0.629527
vt 0.488800 0.613800
vt 0.465264 0.629527
vt 0.386200 0.613800
vt 0.887525 0.613121
vt 0.887525 0.710618
vt 0.887525 0.418129
vt 0.679368 0.112475
vt 0.887525 0.515625
vt 0.874361 0.112475
vt 0.887525 0.125639
vt 0.776864 0.112475
vt 0.887525 0.223136
vt 0.887525 0.320632
vt 0.094389 0.112475
vt 0.887525 0.905611
vt 0.289382 0.112475
vt 0.191886 0.112475
vt 0.887525 0.808114
vt 0.386878 0.112475
vt 0.581871 0.112475
vt 0.484375 0.112475
vt 0.191886 0.012525
vt 0.987475 0.905611
vt 0.094389 0.012525
vt 0.289382 0.012525
vt 0.987475 0.808114
vt 0.987475 0.710618
vt 0.987475 0.613122
vt 0.484375 0.012525
vt 0.987475 0.515625
vt 0.386879 0.012525
vt 0.987475 0.418129
vt 0.581872 0.012525
vt 0.987475 0.125639
vt 0.874361 0.012525
vt 0.987475 0.223136
vt 0.679368 0.012525
vt 0.776864 0.012525
vt 0.987475 0.320632
s 0
f 17/35/1 58/94/1 32/67/1
s 1
f 14/29/2 29/60/3 13/26/4
f 7/14/5 22/46/6 6/12/7
f 15/31/8 30/63/9 14/29/2
f 8/16/10 23/48/11 7/14/5
f 16/34/12 31/65/13 15/31/8
f 9/19/14 24/50/15 8/16/10
f 2/3/16 17/36/17 1/1/18
f 1/1/18 32/68/19 16/34/12
f 10/20/20 25/52/21 9/19/14
f 3/5/22 18/37/23 2/3/16
f 11/22/24 26/54/25 10/20/20
f 4/7/26 19/39/27 3/5/22
f 12/24/28 27/56/29 11/22/24
f 5/10/30 20/41/31 4/7/26
f 13/27/4 28/58/32 12/24/28
f 6/12/7 21/44/33 5/9/30
f 69/105/34 90/129/35 88/127/34
f 67/103/35 96/136/36 90/129/35
f 72/109/37 96/136/36 73/110/36
f 70/107/38 93/133/37 72/109/37
f 71/108/39 92/132/38 70/106/38
f 68/104/40 95/135/39 71/108/39
f 79/117/41 94/134/40 68/104/40
f 80/118/42 91/130/41 79/117/41
f 78/116/43 87/126/42 80/118/42
f 75/113/44 89/128/43 78/116/43
f 75/113/44 81/119/45 83/122/44
f 76/114/45 82/121/46 81/119/45
f 74/112/46 84/123/47 82/120/46
f 77/115/47 85/124/48 84/123/47
f 66/102/48 86/125/49 85/124/48
f 65/101/49 88/127/34 86/125/49
s 0
f 46/82/50 7/15/50 43/79/50
f 35/71/50 1/2/50 16/33/50
f 48/84/50 10/21/50 9/18/50
f 11/23/50 39/75/50 12/25/50
f 60/96/1 30/64/1 61/97/1
f 61/97/1 31/66/1 64/100/1
f 47/83/50 11/23/50 10/21/50
f 33/69/50 3/6/50 2/4/50
f 8/17/50 48/84/50 9/18/50
f 38/74/50 12/25/50 39/75/50
f 45/81/50 3/6/50 34/70/50
f 15/32/50 35/71/50 16/33/50
f 42/78/50 4/8/50 45/81/50
f 37/73/50 2/4/50 1/2/50
f 15/32/50 40/76/50 41/77/50
f 18/38/1 56/92/1 17/35/1
f 23/49/1 57/93/1 51/87/1
f 40/76/50 13/28/50 38/74/50
f 42/78/50 6/13/50 5/11/50
f 22/47/1 50/86/1 21/45/1
f 49/85/1 23/49/1 51/87/1
f 55/91/1 24/51/1 25/53/1
f 44/80/50 7/15/50 6/13/50
f 59/95/1 27/57/1 62/98/1
f 54/90/1 19/40/1 53/89/1
f 55/91/1 26/55/1 59/95/1
f 60/96/1 28/59/1 29/62/1
f 63/99/1 27/57/1 28/59/1
f 52/88/1 19/40/1 20/42/1
f 52/88/1 21/45/1 50/86/1
f 58/94/1 31/66/1 32/67/1
f 17/35/1 56/92/1 58/94/1
s 1
f 14/29/2 30/63/9 29/60/3
f 7/14/5 23/48/11 22/46/6
f 15/31/8 31/65/13 30/63/9
f 8/16/10 24/50/15 23/48/11
f 16/34/12 32/68/19 31/65/13
f 9/19/14 25/52/21 24/50/15
f 2/3/16 18/37/23 17/36/17
f 1/1/18 17/36/17 32/68/19
f 10/20/20 26/54/25 25/52/21
f 3/5/22 19/39/27 18/37/23
f 11/22/24 27/56/29 26/54/25
f 4/7/26 20/41/31 19/39/27
f 12/24/28 28/58/32 27/56/29
f 5/10/30 21/43/33 20/41/31
f 13/27/4 29/61/3 28/58/32
f 6/12/7 22/46/6 21/44/33
f 69/105/34 67/103/35 90/129/35
f 67/103/35 73/110/36 96/136/36
f 72/109/37 93/133/37 96/136/36
f 70/107/38 92/131/38 93/133/37
f 71/108/39 95/135/39 92/132/38
f 68/104/40 94/134/40 95/135/39
f 79/117/41 91/130/41 94/134/40
f 80/118/42 87/126/42 91/130/41
f 78/116/43 89/128/43 87/126/42
f 75/113/44 83/122/44 89/128/43
f 75/113/44 76/114/45 81/119/45
f 76/114/45 74/111/46 82/121/46
f 74/112/46 77/115/47 84/123/47
f 77/115/47 66/102/48 85/124/48
f 66/102/48 65/101/49 86/125/49
f 65/101/49 69/105/34 88/127/34
s 0
f 46/82/50 8/17/50 7/15/50
f 35/71/50 37/73/50 1/2/50
f 48/84/50 47/83/50 10/21/50
f 11/23/50 36/72/50 39/75/50
f 60/96/1 29/62/1 30/64/1
f 61/97/1 30/64/1 31/66/1
f 47/83/50 36/72/50 11/23/50
f 33/69/50 34/70/50 3/6/50
f 8/17/50 46/82/50 48/84/50
f 38/74/50 13/28/50 12/25/50
f 45/81/50 4/8/50 3/6/50
f 15/32/50 41/77/50 35/71/50
f 42/78/50 5/11/50 4/8/50
f 37/73/50 33/69/50 2/4/50
f 15/32/50 14/30/50 40/76/50
f 18/38/1 54/90/1 56/92/1
f 23/49/1 24/51/1 57/93/1
f 40/76/50 14/30/50 13/28/50
f 42/78/50 44/80/50 6/13/50
f 22/47/1 49/85/1 50/86/1
f 49/85/1 22/47/1 23/49/1
f 55/91/1 57/93/1 24/51/1
f 44/80/50 43/79/50 7/15/50
f 59/95/1 26/55/1 27/57/1
f 54/90/1 18/38/1 19/40/1
f 55/91/1 25/53/1 26/55/1
f 60/96/1 63/99/1 28/59/1
f 63/99/1 62/98/1 27/57/1
f 52/88/1 53/89/1 19/40/1
f 52/88/1 20/42/1 21/45/1
f 58/94/1 64/100/1 31/66/1
