# Blender 3.5.1
# www.blender.org
o Circle
v 0.000000 0.060000 0.000000
v -0.022961 0.055433 0.000000
v -0.042426 0.042426 0.000000
v -0.055433 0.022961 0.000000
v -0.060000 -0.000000 0.000000
v -0.055433 -0.022961 0.000000
v -0.042426 -0.042426 0.000000
v -0.022961 -0.055433 0.000000
v 0.000000 -0.060000 0.000000
v 0.022961 -0.055433 0.000000
v 0.042426 -0.042426 0.000000
v 0.055433 -0.022961 0.000000
v 0.060000 -0.000000 0.000000
v 0.055433 0.022961 0.000000
v 0.042426 0.042426 0.000000
v 0.022961 0.055433 0.000000
v 0.000000 0.060000 0.020000
v -0.022961 0.055433 0.020000
v -0.042426 0.042426 0.020000
v -0.055433 0.022961 0.020000
v -0.060000 -0.000000 0.020000
v -0.055433 -0.022961 0.020000
v -0.042426 -0.042426 0.020000
v -0.022961 -0.055433 0.020000
v 0.000000 -0.060000 0.020000
v 0.022961 -0.055433 0.020000
v 0.042426 -0.042426 0.020000
v 0.055433 -0.022961 0.020000
v 0.060000 -0.000000 0.020000
v 0.055433 0.022961 0.020000
v 0.042426 0.042426 0.020000
v 0.022961 0.055433 0.020000
v 0.000000 0.060000 0.020000
v -0.022961 0.055433 0.020000
v -0.042426 0.042426 0.020000
v -0.055433 0.022961 0.020000
v -0.060000 -0.000000 0.020000
v -0.055433 -0.022961 0.020000
v -0.042426 -0.042426 0.020000
v -0.022961 -0.055433 0.020000
v 0.000000 -0.060000 0.020000
v 0.022961 -0.055433 0.020000
v 0.042426 -0.042426 0.020000
v 0.055433 -0.022961 0.020000
v 0.060000 -0.000000 0.020000
v 0.055433 0.022961 0.020000
v 0.042426 0.042426 0.020000
v 0.022961 0.055433 0.020000
v 0.000000 0.060000 0.000000
v -0.022961 0.055433 0.000000
v -0.042426 0.042426 0.000000
v -0.055433 0.022961 0.000000
v -0.060000 -0.000000 0.000000
v -0.055433 -0.022961 0.000000
v -0.042426 -0.042426 0.000000
v -0.022961 -0.055433 0.000000
v 0.000000 -0.060000 0.000000
v 0.022961 -0.055433 0.000000
v 0.042426 -0.042426 0.000000
v 0.055433 -0.022961 0.000000
v 0.060000 -0.000000 0.000000
v 0.055433 0.022961 0.000000
v 0.042426 0.042426 0.000000
v 0.022961 0.055433 0.000000
vn -0.0000 -0.0000 -1.0000
vn 0.9239 0.3827 -0.0000
vn 1.0000 -0.0000 -0.0000
vn -0.7071 -0.7071 -0.0000
vn -0.9239 -0.3827 -0.0000
vn 0.7071 0.7071 -0.0000
vn -0.3827 -0.9239 -0.0000
vn 0.3827 0.9239 -0.0000
vn -0.0000 -1.0000 -0.0000
vn -0.3827 0.9239 -0.0000
vn -0.0000 1.0000 -0.0000
vn 0.3827 -0.9239 -0.0000
vn -0.7071 0.7071 -0.0000
vn 0.7071 -0.7071 -0.0000
vn -0.9239 0.3827 -0.0000
vn 0.9239 -0.3827 -0.0000
vn -1.0000 -0.0000 -0.0000
vn -0.0000 -0.0000 1.0000
vt 0.901225 0.500000
vt 0.901225 0.415078
vt 0.901225 0.330156
vt 0.901225 0.245234
vt 0.160312 0.010600
vt 0.901225 0.160312
vt 0.245234 0.010600
vt 0.330156 0.010600
vt 0.415078 0.010600
vt 0.500000 0.010600
vt 0.584922 0.010600
vt 0.669844 0.010600
vt 0.754766 0.010600
vt 0.901225 0.839688
vt 0.839688 0.010600
vt 0.901225 0.754766
vt 0.901225 0.669844
vt 0.901225 0.584922
vt 0.973775 0.500000
vt 0.973775 0.415078
vt 0.973775 0.330156
vt 0.973775 0.245234
vt 0.973775 0.160312
vt 0.160312 0.083150
vt 0.245234 0.083150
vt 0.330156 0.083150
vt 0.415078 0.083150
vt 0.500000 0.083150
vt 0.584922 0.083150
vt 0.669844 0.083150
vt 0.754766 0.083150
vt 0.973775 0.839688
vt 0.839688 0.083150
vt 0.973775 0.754766
vt 0.973775 0.669844
vt 0.973775 0.584922
vt 0.010569 0.477578
vt 0.075565 0.320663
vt 0.195663 0.200565
vt 0.352578 0.135568
vt 0.522422 0.135568
vt 0.679338 0.200565
vt 0.799435 0.320663
vt 0.864432 0.477578
vt 0.864432 0.647422
vt 0.799435 0.804338
vt 0.679338 0.924435
vt 0.522422 0.989432
vt 0.352578 0.989432
vt 0.195663 0.924435
vt 0.075565 0.804337
vt 0.010569 0.647422
vt 0.010568 0.477578
vt 0.010568 0.647422
vt 0.075565 0.804337
vt 0.195663 0.924435
vt 0.352578 0.989432
vt 0.522422 0.989432
vt 0.679337 0.924435
vt 0.799435 0.804337
vt 0.864432 0.647422
vt 0.864432 0.477578
vt 0.799435 0.320663
vt 0.679338 0.200565
vt 0.522422 0.135568
vt 0.352578 0.135568
vt 0.195663 0.200565
vt 0.075565 0.320662
s 0
f 59/63/1 55/59/1 51/55/1
s 1
f 14/16/2 29/32/3 13/14/3
f 7/8/4 22/25/5 6/7/5
f 15/17/6 30/34/2 14/16/2
f 8/9/7 23/26/4 7/8/4
f 16/18/8 31/35/6 15/17/6
f 9/10/9 24/27/7 8/9/7
f 2/2/10 17/19/11 1/1/11
f 1/1/11 32/36/8 16/18/8
f 10/11/12 25/28/9 9/10/9
f 3/3/13 18/20/10 2/2/10
f 11/12/14 26/29/12 10/11/12
f 4/4/15 19/21/13 3/3/13
f 12/13/16 27/30/14 11/12/14
f 5/6/17 20/22/15 4/4/15
f 13/15/3 28/31/16 12/13/16
f 6/7/5 21/24/17 5/5/17
s 0
f 41/45/18 45/49/18 33/37/18
f 51/55/1 50/54/1 49/53/1
f 49/53/1 64/68/1 63/67/1
f 63/67/1 62/66/1 61/65/1
f 61/65/1 60/64/1 59/63/1
f 59/63/1 58/62/1 57/61/1
f 57/61/1 56/60/1 55/59/1
f 55/59/1 54/58/1 53/57/1
f 53/57/1 52/56/1 51/55/1
f 51/55/1 49/53/1 63/67/1
f 63/67/1 61/65/1 59/63/1
f 59/63/1 57/61/1 55/59/1
f 55/59/1 53/57/1 51/55/1
f 51/55/1 63/67/1 59/63/1
s 1
f 14/16/2 30/34/2 29/32/3
f 7/8/4 23/26/4 22/25/5
f 15/17/6 31/35/6 30/34/2
f 8/9/7 24/27/7 23/26/4
f 16/18/8 32/36/8 31/35/6
f 9/10/9 25/28/9 24/27/7
f 2/2/10 18/20/10 17/19/11
f 1/1/11 17/19/11 32/36/8
f 10/11/12 26/29/12 25/28/9
f 3/3/13 19/21/13 18/20/10
f 11/12/14 27/30/14 26/29/12
f 4/4/15 20/22/15 19/21/13
f 12/13/16 28/31/16 27/30/14
f 5/6/17 21/23/17 20/22/15
f 13/15/3 29/33/3 28/31/16
f 6/7/5 22/25/5 21/24/17
s 0
f 33/37/18 34/38/18 35/39/18
f 35/39/18 36/40/18 37/41/18
f 37/41/18 38/42/18 39/43/18
f 39/43/18 40/44/18 41/45/18
f 41/45/18 42/46/18 43/47/18
f 43/47/18 44/48/18 45/49/18
f 45/49/18 46/50/18 47/51/18
f 47/51/18 48/52/18 33/37/18
f 33/37/18 35/39/18 37/41/18
f 37/41/18 39/43/18 41/45/18
f 41/45/18 43/47/18 45/49/18
f 45/49/18 47/51/18 33/37/18
f 33/37/18 37/41/18 41/45/18
