# Blender 3.4.1
# www.blender.org
o Cube
v 0.050000 0.050000 0.040000 1.0000 1.0000 1.0000
v 0.050000 0.050000 -0.040000 1.0000 1.0000 1.0000
v 0.050000 -0.050000 0.040000 1.0000 1.0000 1.0000
v 0.050000 -0.050000 -0.040000 1.0000 1.0000 1.0000
v -0.050000 0.050000 0.040000 1.0000 1.0000 1.0000
v -0.050000 0.050000 -0.040000 1.0000 1.0000 1.0000
v -0.050000 -0.050000 0.040000 1.0000 1.0000 1.0000
v -0.050000 -0.050000 -0.040000 1.0000 1.0000 1.0000
v 0.060000 0.010000 0.000000 1.0000 0.2812 0.2812
v 0.060000 0.009239 -0.003827 1.0000 0.0061 0.0061
v 0.060000 0.007071 -0.007071 1.0000 0.1435 0.1435
v 0.060000 0.003827 -0.009239 1.0000 0.0000 0.0000
v 0.060000 0.000000 -0.010000 1.0000 0.0381 0.0381
v 0.060000 -0.003827 -0.009239 1.0000 0.0003 0.0003
v 0.060000 -0.007071 -0.007071 1.0000 0.0164 0.0164
v 0.060000 -0.009239 -0.003827 1.0000 0.0161 0.0161
v 0.060000 -0.010000 -0.000000 1.0000 0.2679 0.2679
v 0.060000 -0.009239 0.003827 1.0000 0.2617 0.2617
v 0.060000 -0.007071 0.007071 1.0000 0.0566 0.0566
v 0.060000 -0.003827 0.009239 1.0000 0.0003 0.0003
v 0.060000 -0.000000 0.010000 1.0000 0.0084 0.0084
v 0.060000 0.003827 0.009239 1.0000 0.0055 0.0055
v 0.060000 0.007071 0.007071 1.0000 0.2356 0.2356
v 0.060000 0.009239 0.003827 1.0000 0.4281 0.4281
v 0.070000 0.000000 0.000000 1.0000 0.0847 0.0847
v 0.060000 0.005000 0.000000 1.0000 0.0000 0.0000
v 0.060000 0.004619 -0.001913 1.0000 0.0000 0.0000
v 0.060000 0.003536 -0.003536 1.0000 0.0000 0.0000
v 0.060000 0.001913 -0.004619 1.0000 0.0000 0.0000
v 0.060000 -0.000000 -0.005000 1.0000 0.0000 0.0000
v 0.060000 -0.001913 -0.004619 1.0000 0.0000 0.0000
v 0.060000 -0.003536 -0.003536 1.0000 0.0000 0.0000
v 0.060000 -0.004619 -0.001913 1.0000 0.0000 0.0000
v 0.060000 -0.005000 -0.000000 1.0000 0.0000 0.0000
v 0.060000 -0.004619 0.001913 1.0000 0.0000 0.0000
v 0.060000 -0.003536 0.003536 1.0000 0.0000 0.0000
v 0.060000 -0.001913 0.004619 1.0000 0.0000 0.0000
v 0.060000 -0.000000 0.005000 1.0000 0.0000 0.0000
v 0.060000 0.001913 0.004619 1.0000 0.0000 0.0000
v 0.060000 0.003536 0.003536 1.0000 0.0000 0.0000
v 0.060000 0.004619 0.001913 1.0000 0.0000 0.0000
v 0.050000 0.005000 0.000000 1.0000 0.0000 0.0000
v 0.050000 0.004619 -0.001913 1.0000 0.0000 0.0000
v 0.050000 0.003536 -0.003536 1.0000 0.0000 0.0000
v 0.050000 0.001913 -0.004619 1.0000 0.0000 0.0000
v 0.050000 -0.000000 -0.005000 1.0000 0.0000 0.0000
v 0.050000 -0.001913 -0.004619 1.0000 0.0000 0.0000
v 0.050000 -0.003536 -0.003536 1.0000 0.0000 0.0000
v 0.050000 -0.004619 -0.001913 1.0000 0.0001 0.0001
v 0.050000 -0.005000 -0.000000 1.0000 0.0053 0.0053
v 0.050000 -0.004619 0.001913 1.0000 0.0040 0.0040
v 0.050000 -0.003536 0.003536 1.0000 0.0018 0.0018
v 0.050000 -0.001913 0.004619 1.0000 0.0015 0.0015
v 0.050000 -0.000000 0.005000 1.0000 0.0006 0.0006
v 0.050000 0.001913 0.004619 1.0000 0.0005 0.0005
v 0.050000 0.003536 0.003536 1.0000 0.0000 0.0000
v 0.050000 0.004619 0.001913 1.0000 0.0000 0.0000
v 0.060000 0.004619 -0.001913 1.0000 0.0000 0.0000
v 0.060000 0.005000 0.000000 1.0000 0.0001 0.0001
v 0.060000 0.003536 -0.003536 1.0000 0.0000 0.0000
v 0.060000 0.001913 -0.004619 1.0000 0.0004 0.0004
v 0.060000 -0.000000 -0.005000 1.0000 0.0000 0.0000
v 0.060000 -0.001913 -0.004619 1.0000 0.0000 0.0000
v 0.060000 -0.003536 -0.003536 1.0000 0.0000 0.0000
v 0.060000 -0.004619 -0.001913 1.0000 0.0017 0.0017
v 0.060000 -0.005000 -0.000000 1.0000 0.0000 0.0000
v 0.060000 -0.004619 0.001913 1.0000 0.0001 0.0001
v 0.060000 -0.003536 0.003536 1.0000 0.0032 0.0032
v 0.060000 -0.001913 0.004619 1.0000 0.0119 0.0119
v 0.060000 -0.000000 0.005000 1.0000 0.0000 0.0000
v 0.060000 0.001913 0.004619 1.0000 0.0000 0.0000
v 0.060000 0.003536 0.003536 1.0000 0.0000 0.0000
v 0.060000 0.004619 0.001913 1.0000 0.0001 0.0001
v 0.060000 0.009239 -0.003827 1.0000 0.0000 0.0000
v 0.060000 0.010000 0.000000 1.0000 0.0000 0.0000
v 0.060000 0.007071 -0.007071 1.0000 0.0000 0.0000
v 0.060000 0.003827 -0.009239 1.0000 0.0000 0.0000
v 0.060000 0.000000 -0.010000 1.0000 0.0000 0.0000
v 0.060000 -0.003827 -0.009239 1.0000 0.0003 0.0003
v 0.060000 -0.007071 -0.007071 1.0000 0.3069 0.3069
v 0.060000 -0.009239 -0.003827 1.0000 0.1437 0.1437
v 0.060000 -0.010000 -0.000000 1.0000 0.0020 0.0020
v 0.060000 -0.009239 0.003827 1.0000 0.0000 0.0000
v 0.060000 -0.007071 0.007071 1.0000 0.0000 0.0000
v 0.060000 -0.003827 0.009239 1.0000 0.0000 0.0000
v 0.060000 -0.000000 0.010000 1.0000 0.0000 0.0000
v 0.060000 0.003827 0.009239 1.0000 0.0002 0.0002
v 0.060000 0.007071 0.007071 1.0000 0.2338 0.2338
v 0.060000 0.009239 0.003827 1.0000 0.0108 0.0108
v 0.070000 0.000000 0.000000 1.0000 1.0000 1.0000
vn -0.0000 -0.0000 1.0000
vn -0.0000 -1.0000 -0.0000
vn -1.0000 -0.0000 -0.0000
vn -0.0000 -0.0000 -1.0000
vn 1.0000 -0.0000 -0.0000
vn -0.0000 1.0000 -0.0000
vn 0.7071 0.7071 -0.0000
vn 0.7071 0.6533 -0.2706
vn 0.7071 0.5000 -0.5000
vn 0.7071 0.2706 -0.6533
vn 0.7071 -0.0000 -0.7071
vn 0.7071 -0.2706 -0.6533
vn 0.7071 -0.5000 -0.5000
vn 0.7071 -0.6533 -0.2706
vn 0.7071 -0.7071 -0.0000
vn 0.7071 -0.6533 0.2706
vn 0.7071 -0.5000 0.5000
vn 0.7071 -0.2706 0.6533
vn 0.7071 -0.0000 0.7071
vn 0.7071 0.2706 0.6533
vn 0.7071 0.5000 0.5000
vn 0.7071 0.6533 0.2706
vn -0.0000 0.3827 0.9239
vn -0.0000 -0.7071 -0.7071
vn -0.0000 -0.3827 -0.9239
vn -0.0000 0.7071 0.7071
vn -0.0000 -0.9239 -0.3827
vn -0.0000 0.9239 0.3827
vn -0.0000 0.9239 -0.3827
vn -0.0000 -0.9239 0.3827
vn -0.0000 0.7071 -0.7071
vn -0.0000 -0.7071 0.7071
vn -0.0000 0.3827 -0.9239
vn -0.0000 -0.3827 0.9239
vt 0.625000 0.500000
vt 0.375000 0.500000
vt 0.625000 0.750000
vt 0.375000 0.750000
vt 0.875000 0.500000
vt 0.625000 0.250000
vt 0.125000 0.500000
vt 0.375000 0.250000
vt 0.875000 0.750000
vt 0.625000 1.000000
vt 0.625000 0.000000
vt 0.375000 0.000000
vt 0.375000 1.000000
vt 0.125000 0.750000
vt 0.500000 1.000000
vt 0.691342 0.961940
vt 0.853553 0.853553
vt 0.961940 0.691342
vt 1.000000 0.500000
vt 0.961940 0.308658
vt 0.853553 0.146447
vt 0.691342 0.038060
vt 0.500000 0.000000
vt 0.308658 0.038060
vt 0.146447 0.146447
vt 0.038060 0.308658
vt 0.000000 0.500000
vt 0.038060 0.691342
vt 0.146447 0.853553
vt 0.308658 0.961940
vt 0.500000 0.500000
vt 0.500000 1.000000
vt 0.691342 0.961940
vt 0.853553 0.853553
vt 0.961940 0.691342
vt 1.000000 0.500000
vt 0.961940 0.308658
vt 0.853553 0.146447
vt 0.691342 0.038060
vt 0.500000 0.000000
vt 0.308658 0.038060
vt 0.146447 0.146447
vt 0.038060 0.308658
vt 0.000000 0.500000
vt 0.038060 0.691342
vt 0.146447 0.853553
vt 0.308658 0.961940
vt 0.500000 1.000000
vt 0.691342 0.961940
vt 0.853553 0.853553
vt 0.961940 0.691342
vt 1.000000 0.500000
vt 0.961940 0.308658
vt 0.853553 0.146447
vt 0.691342 0.038060
vt 0.500000 0.000000
vt 0.308658 0.038060
vt 0.146447 0.146447
vt 0.038060 0.308658
vt 0.000000 0.500000
vt 0.038060 0.691342
vt 0.146447 0.853553
vt 0.308658 0.961940
vt 0.691342 0.961940
vt 0.500000 1.000000
vt 0.853553 0.853553
vt 0.961940 0.691342
vt 1.000000 0.500000
vt 0.961940 0.308658
vt 0.853553 0.146447
vt 0.691342 0.038060
vt 0.500000 0.000000
vt 0.308658 0.038060
vt 0.146447 0.146447
vt 0.038060 0.308658
vt 0.000000 0.500000
vt 0.038060 0.691342
vt 0.146447 0.853553
vt 0.308658 0.961940
vt 0.691342 0.961940
vt 0.500000 1.000000
vt 0.853553 0.853553
vt 0.961940 0.691342
vt 1.000000 0.500000
vt 0.961940 0.308658
vt 0.853553 0.146447
vt 0.691342 0.038060
vt 0.500000 0.000000
vt 0.308658 0.038060
vt 0.146447 0.146447
vt 0.038060 0.308658
vt 0.000000 0.500000
vt 0.038060 0.691342
vt 0.146447 0.853553
vt 0.308658 0.961940
s 0
f 5/5/1 3/3/1 1/1/1
f 3/3/2 8/13/2 4/4/2
f 7/11/3 6/8/3 8/12/3
f 2/2/4 8/14/4 6/7/4
f 1/1/5 4/4/5 2/2/5
f 5/6/6 2/2/6 6/8/6
s 1
f 75/81/7 25/31/5 74/80/8
f 74/80/8 25/31/5 76/82/9
f 76/82/9 25/31/5 77/83/10
f 77/83/10 25/31/5 78/84/11
f 78/84/11 25/31/5 79/85/12
f 79/85/12 25/31/5 80/86/13
f 80/86/13 25/31/5 81/87/14
f 81/87/14 25/31/5 82/88/15
f 82/88/15 25/31/5 83/89/16
f 83/89/16 25/31/5 84/90/17
f 84/90/17 25/31/5 85/91/18
f 85/91/18 25/31/5 86/92/19
f 86/92/19 25/31/5 87/93/20
f 87/93/20 25/31/5 88/94/21
f 88/94/21 25/31/5 89/95/22
f 89/95/22 25/31/5 75/81/7
f 24/30/3 72/78/3 23/29/3
f 12/18/3 62/68/3 61/67/3
f 10/16/3 59/65/3 9/15/3
f 16/22/3 66/72/3 65/71/3
f 20/26/3 70/76/3 69/75/3
f 24/30/3 59/65/3 73/79/3
f 14/20/3 62/68/3 13/19/3
f 18/24/3 66/72/3 17/23/3
f 22/28/3 70/76/3 21/27/3
f 11/17/3 58/64/3 10/16/3
f 15/21/3 63/69/3 14/20/3
f 18/24/3 68/74/3 67/73/3
f 23/29/3 71/77/3 22/28/3
f 12/18/3 60/66/3 11/17/3
f 16/22/3 64/70/3 15/21/3
f 20/26/3 68/74/3 19/25/3
f 39/45/23 54/60/1 38/44/1
f 32/38/24 47/53/25 31/37/25
f 40/46/26 55/61/23 39/45/23
f 33/39/27 48/54/24 32/38/24
f 41/47/28 56/62/26 40/46/26
f 34/40/2 49/55/27 33/39/27
f 27/33/29 42/48/6 26/32/6
f 26/32/6 57/63/28 41/47/28
f 35/41/30 50/56/2 34/40/2
f 28/34/31 43/49/29 27/33/29
f 36/42/32 51/57/30 35/41/30
f 29/35/33 44/50/31 28/34/31
f 37/43/34 52/58/32 36/42/32
f 30/36/4 45/51/33 29/35/33
f 38/44/1 53/59/34 37/43/34
f 31/37/25 46/52/4 30/36/4
s 0
f 5/5/1 7/9/1 3/3/1
f 3/3/2 7/10/2 8/13/2
f 7/11/3 5/6/3 6/8/3
f 2/2/4 4/4/4 8/14/4
f 1/1/5 3/3/5 4/4/5
f 5/6/6 1/1/6 2/2/6
s 1
f 24/30/3 73/79/3 72/78/3
f 12/18/3 13/19/3 62/68/3
f 10/16/3 58/64/3 59/65/3
f 16/22/3 17/23/3 66/72/3
f 20/26/3 21/27/3 70/76/3
f 24/30/3 9/15/3 59/65/3
f 14/20/3 63/69/3 62/68/3
f 18/24/3 67/73/3 66/72/3
f 22/28/3 71/77/3 70/76/3
f 11/17/3 60/66/3 58/64/3
f 15/21/3 64/70/3 63/69/3
f 18/24/3 19/25/3 68/74/3
f 23/29/3 72/78/3 71/77/3
f 12/18/3 61/67/3 60/66/3
f 16/22/3 65/71/3 64/70/3
f 20/26/3 69/75/3 68/74/3
f 39/45/23 55/61/23 54/60/1
f 32/38/24 48/54/24 47/53/25
f 40/46/26 56/62/26 55/61/23
f 33/39/27 49/55/27 48/54/24
f 41/47/28 57/63/28 56/62/26
f 34/40/2 50/56/2 49/55/27
f 27/33/29 43/49/29 42/48/6
f 26/32/6 42/48/6 57/63/28
f 35/41/30 51/57/30 50/56/2
f 28/34/31 44/50/31 43/49/29
f 36/42/32 52/58/32 51/57/30
f 29/35/33 45/51/33 44/50/31
f 37/43/34 53/59/34 52/58/32
f 30/36/4 46/52/4 45/51/33
f 38/44/1 54/60/1 53/59/34
f 31/37/25 47/53/25 46/52/4
